<svg xmlns="http://www.w3.org/2000/svg" width="185" height="278" viewBox="0 0 185 278"><rect width="100%" height="100%" fill="#DDDDDD"/><path fill="#999999" d="M36.615 139.115h1.41q.51 0 .9-.13.38-.13.64-.37.25-.25.38-.59.13-.35.13-.78 0-.4-.13-.73t-.38-.56-.63-.35q-.39-.13-.91-.13h-1.41zm-1.88-5.09h3.29q1.01 0 1.75.24.74.23 1.23.66.48.43.72 1.02.23.6.23 1.3 0 .74-.25 1.35-.24.61-.73 1.06-.49.44-1.23.68-.74.25-1.72.25h-1.41v3.56h-1.88zm11.57 2.83q.79 0 1.45.25.65.26 1.12.74.46.48.72 1.16.25.69.25 1.54t-.25 1.54q-.26.68-.72 1.16-.47.49-1.12.75-.66.25-1.45.25-.81 0-1.47-.25-.65-.26-1.12-.75-.47-.48-.72-1.16-.26-.69-.26-1.54t.26-1.54q.25-.68.72-1.16t1.12-.74q.66-.25 1.47-.25m0 6.06q.89 0 1.32-.6t.43-1.76-.43-1.77-1.32-.61q-.91 0-1.35.61t-.44 1.77q0 1.15.44 1.76.44.6 1.35.6m9.64-5.18-.4.63q-.07.11-.14.16-.08.04-.2.04-.13 0-.27-.07t-.33-.16q-.19-.08-.43-.15t-.57-.07q-.51 0-.8.21-.29.22-.29.57 0 .23.15.39t.4.28q.24.11.56.21.31.09.64.2.32.12.64.26.31.14.56.36t.4.53.15.75q0 .51-.18.95-.19.44-.55.76-.37.32-.9.49-.54.18-1.24.18-.37 0-.72-.06-.36-.07-.68-.19-.33-.12-.6-.28-.28-.16-.49-.35l.4-.66q.08-.12.18-.18.11-.06.27-.06t.3.09q.15.09.33.19.19.11.45.2.25.09.65.09.3 0 .53-.07.22-.08.36-.19.14-.12.21-.28t.07-.33q0-.25-.15-.41-.16-.16-.4-.28-.25-.12-.57-.21-.32-.1-.65-.21t-.65-.26-.57-.38q-.25-.24-.4-.57-.15-.34-.15-.81 0-.44.18-.84.17-.4.51-.7t.85-.48q.5-.17 1.17-.17.74 0 1.35.24.61.25 1.02.64m3.77 6.52q-.94 0-1.44-.53t-.5-1.46v-4.01h-.74q-.14 0-.23-.09-.1-.09-.1-.27v-.69l1.15-.19.37-1.96q.03-.14.13-.21.1-.08.25-.08h.9v2.26h1.92v1.23h-1.92v3.89q0 .34.16.53.17.19.45.19.17 0 .27-.04.11-.04.19-.08t.15-.08q.06-.04.12-.04.08 0 .13.04t.1.12l.52.83q-.38.32-.87.48t-1.01.16m4.18-4.53h3.26q0-.33-.09-.63-.1-.3-.29-.52-.19-.23-.48-.36-.29-.12-.67-.12-.75 0-1.18.42-.43.43-.55 1.21m4.41 1.05h-4.45q.04.55.2.95.15.4.4.67.26.26.6.39.35.13.77.13t.72-.1q.31-.1.54-.22.22-.12.4-.21.17-.1.33-.1.21 0 .32.16l.5.63q-.29.34-.65.56-.35.23-.74.37-.39.13-.79.19-.41.05-.78.05-.75 0-1.4-.24-.64-.25-1.12-.74-.47-.48-.75-1.2-.27-.72-.27-1.67 0-.73.24-1.38t.68-1.12q.45-.48 1.09-.76t1.44-.28q.68 0 1.25.21.58.22.99.64.41.41.65 1.02.23.6.23 1.38 0 .39-.08.53t-.32.14m3.22-3.38.11.81q.34-.64.8-1.01t1.09-.37q.5 0 .8.22l-.11 1.3q-.04.12-.11.18-.06.05-.17.05t-.32-.04q-.2-.03-.4-.03-.29 0-.51.08-.22.09-.4.24-.18.16-.32.38-.13.23-.25.52v4.42h-1.73v-7.18h1.01q.27 0 .37.09.11.1.14.34m11.45 5.23q.55 0 .98-.18t.72-.51.45-.8.16-1.05v-6.06h1.88v6.06q0 .9-.29 1.67t-.83 1.32q-.54.56-1.32.87t-1.75.31q-.98 0-1.76-.31-.77-.31-1.32-.87-.54-.55-.83-1.32t-.29-1.67v-6.06h1.88v6.05q0 .58.16 1.05t.46.8q.29.34.72.52t.98.18m7.55-5.35.11.57q.22-.22.46-.4.24-.19.51-.32t.58-.2.67-.07q.59 0 1.05.2.45.19.76.56.3.36.46.86t.16 1.1v4.57h-1.73v-4.57q0-.66-.3-1.02-.31-.36-.92-.36-.45 0-.84.2-.39.21-.74.56v5.19h-1.73v-7.18h1.05q.34 0 .45.31m10.19 5.02v-1.22q-.75.04-1.26.13-.51.1-.82.25-.31.14-.44.34-.14.19-.14.42 0 .46.27.66.27.19.71.19.53 0 .92-.19t.76-.58m-3.66-3.78-.3-.55q1.23-1.14 2.98-1.14.63 0 1.12.21.5.21.84.58.35.36.53.87.17.51.17 1.12v4.54h-.78q-.24 0-.38-.07-.13-.08-.21-.3l-.15-.52q-.27.25-.53.43-.26.19-.54.31-.28.13-.6.2-.32.06-.7.06-.46 0-.84-.12-.39-.12-.67-.37-.28-.24-.43-.61-.16-.36-.16-.84 0-.28.09-.55t.3-.51q.21-.25.54-.46.33-.22.81-.38.47-.16 1.11-.26t1.46-.13v-.42q0-.72-.31-1.06-.31-.35-.89-.35-.42 0-.7.1-.27.1-.48.22t-.38.22q-.18.1-.39.1-.18 0-.3-.1-.13-.09-.21-.22m12.08-1.55h1.36l-2.85 7.18h-1.56l-2.85-7.18h1.43q.19 0 .32.09t.17.23l1.39 3.84q.11.33.19.65.09.33.15.65.07-.32.16-.65.08-.32.2-.65l1.41-3.84q.05-.14.18-.23.12-.09.3-.09m6.07 5.33v-1.22q-.74.04-1.26.13-.51.1-.81.25-.31.14-.45.34-.13.19-.13.42 0 .46.27.66.27.19.7.19.54 0 .93-.19.38-.19.75-.58m-3.65-3.78-.31-.55q1.24-1.14 2.98-1.14.63 0 1.13.21t.84.58q.34.36.52.87t.18 1.12v4.54h-.78q-.25 0-.38-.07-.13-.08-.21-.3l-.15-.52q-.28.25-.54.43-.26.19-.54.31-.28.13-.59.2-.32.06-.71.06-.45 0-.84-.12-.38-.12-.66-.37-.28-.24-.44-.61-.15-.36-.15-.84 0-.28.09-.55t.3-.51q.2-.25.53-.46.33-.22.81-.38t1.12-.26 1.45-.13v-.42q0-.72-.3-1.06-.31-.35-.89-.35-.42 0-.7.1t-.49.22-.38.22-.38.1q-.18 0-.31-.1-.12-.09-.2-.22m7.02-1.55h1.74v7.18h-1.74zm1.98-2.1q0 .23-.1.42-.09.2-.24.35-.15.14-.35.23t-.43.09-.43-.09-.34-.23q-.15-.15-.24-.35-.09-.19-.09-.42t.09-.43.24-.35q.14-.15.34-.23.2-.09.43-.09t.43.09q.2.08.35.23t.24.35q.1.2.1.43m1.54-1.12h1.73v10.4h-1.73zm7.25 8.55v-1.22q-.74.04-1.26.13-.51.1-.81.25-.31.14-.45.34-.13.19-.13.42 0 .46.27.66.27.19.7.19.54 0 .93-.19.38-.19.75-.58m-3.65-3.78-.31-.55q1.24-1.14 2.98-1.14.63 0 1.13.21t.84.58q.34.36.52.87t.18 1.12v4.54h-.78q-.25 0-.38-.07-.13-.08-.21-.3l-.15-.52q-.28.25-.54.43-.26.19-.54.31-.28.13-.59.2-.32.06-.71.06-.45 0-.84-.12-.38-.12-.66-.37-.28-.24-.44-.61-.15-.36-.15-.84 0-.28.09-.55t.3-.51q.2-.25.53-.46.33-.22.81-.38t1.12-.26 1.45-.13v-.42q0-.72-.3-1.06-.31-.35-.89-.35-.42 0-.7.1t-.49.22-.38.22-.38.1q-.18 0-.31-.1-.12-.09-.2-.22m8.69.55v3.22q.3.35.65.5.34.15.73.15.4 0 .71-.14.32-.15.55-.45.22-.31.34-.78t.12-1.13q0-1.18-.39-1.71-.4-.53-1.13-.53-.5 0-.87.23-.37.22-.71.64m0-5.32v4.1q.44-.45.97-.72t1.2-.27q.63 0 1.13.24.5.25.85.7.36.46.54 1.11.19.66.19 1.47 0 .87-.21 1.59-.22.71-.62 1.22-.41.5-.97.78-.57.28-1.26.28-.34 0-.61-.06-.27-.07-.51-.19-.23-.12-.42-.29t-.37-.38l-.07.48q-.05.19-.15.26-.1.08-.27.08h-1.14v-10.4zm6.24 0h1.73v10.4h-1.73zm4.82 5.98h3.27q0-.33-.1-.63-.09-.3-.28-.52-.19-.23-.48-.36-.29-.12-.68-.12-.75 0-1.18.42-.43.43-.55 1.21m4.41 1.05h-4.44q.04.55.2.95.15.4.4.67.25.26.6.39t.77.13.72-.1q.31-.1.53-.22l.4-.21q.17-.1.33-.1.22 0 .33.16l.49.63q-.28.34-.64.56-.36.23-.75.37-.38.13-.79.19-.4.05-.78.05-.75 0-1.39-.24-.64-.25-1.12-.74-.48-.48-.75-1.2t-.27-1.67q0-.73.24-1.38.23-.65.68-1.12.44-.48 1.08-.76t1.45-.28q.68 0 1.25.21.58.22.99.64.41.41.65 1.02.23.6.23 1.38 0 .39-.08.53-.09.14-.33.14"/></svg>